<?xml version="1.0" encoding="UTF-8" standalone="no"?>
<!DOCTYPE svg PUBLIC "-//W3C//DTD SVG 1.1//EN"
 "http://www.w3.org/Graphics/SVG/1.1/DTD/svg11.dtd">
<!-- Generated by graphviz version 2.40.1 (20161225.0304)
 -->
<!-- Title: Tree Pages: 1 -->
<svg width="320pt" height="289pt"
 viewBox="0.00 0.00 319.54 288.80" xmlns="http://www.w3.org/2000/svg" xmlns:xlink="http://www.w3.org/1999/xlink">
<g id="graph0" class="graph" transform="scale(1 1) rotate(0) translate(4 284.8)">
<title>Tree</title>
<polygon fill="#ffffff" stroke="transparent" points="-4,4 -4,-284.8 315.5356,-284.8 315.5356,4 -4,4"/>
<!-- 0 -->
<g id="node1" class="node">
<title>0</title>
<polygon fill="none" stroke="#000000" points="186.3042,-280.9003 60.2314,-280.9003 60.2314,-205.4997 186.3042,-205.4997 186.3042,-280.9003"/>
<text text-anchor="middle" x="123.2678" y="-264.2" font-family="Times,serif" font-size="14.00" fill="#000000">X[4] &lt;= 0.8</text>
<text text-anchor="middle" x="123.2678" y="-247.4" font-family="Times,serif" font-size="14.00" fill="#000000">gini = 0.666</text>
<text text-anchor="middle" x="123.2678" y="-230.6" font-family="Times,serif" font-size="14.00" fill="#000000">samples = 120</text>
<text text-anchor="middle" x="123.2678" y="-213.8" font-family="Times,serif" font-size="14.00" fill="#000000">value = [42, 41, 37]</text>
</g>
<!-- 1 -->
<g id="node2" class="node">
<title>1</title>
<polygon fill="none" stroke="#000000" points="112.3044,-161.4014 .2312,-161.4014 .2312,-102.5986 112.3044,-102.5986 112.3044,-161.4014"/>
<text text-anchor="middle" x="56.2678" y="-144.6" font-family="Times,serif" font-size="14.00" fill="#000000">gini = 0.0</text>
<text text-anchor="middle" x="56.2678" y="-127.8" font-family="Times,serif" font-size="14.00" fill="#000000">samples = 42</text>
<text text-anchor="middle" x="56.2678" y="-111" font-family="Times,serif" font-size="14.00" fill="#000000">value = [42, 0, 0]</text>
</g>
<!-- 0&#45;&gt;1 -->
<g id="edge1" class="edge">
<title>0&#45;&gt;1</title>
<path fill="none" stroke="#000000" d="M100.5847,-205.5528C93.7548,-194.2173 86.253,-181.7665 79.3947,-170.3838"/>
<polygon fill="#000000" stroke="#000000" points="82.2164,-168.2849 74.0576,-161.5258 76.2206,-171.8975 82.2164,-168.2849"/>
<text text-anchor="middle" x="68.0391" y="-181.5906" font-family="Times,serif" font-size="14.00" fill="#000000">True</text>
</g>
<!-- 2 -->
<g id="node3" class="node">
<title>2</title>
<polygon fill="none" stroke="#000000" points="249.8043,-169.7003 130.7313,-169.7003 130.7313,-94.2997 249.8043,-94.2997 249.8043,-169.7003"/>
<text text-anchor="middle" x="190.2678" y="-153" font-family="Times,serif" font-size="14.00" fill="#000000">X[0] &lt;= 100.5</text>
<text text-anchor="middle" x="190.2678" y="-136.2" font-family="Times,serif" font-size="14.00" fill="#000000">gini = 0.499</text>
<text text-anchor="middle" x="190.2678" y="-119.4" font-family="Times,serif" font-size="14.00" fill="#000000">samples = 78</text>
<text text-anchor="middle" x="190.2678" y="-102.6" font-family="Times,serif" font-size="14.00" fill="#000000">value = [0, 41, 37]</text>
</g>
<!-- 0&#45;&gt;2 -->
<g id="edge2" class="edge">
<title>0&#45;&gt;2</title>
<path fill="none" stroke="#000000" d="M145.9509,-205.5528C151.2445,-196.7671 156.9416,-187.3115 162.43,-178.2025"/>
<polygon fill="#000000" stroke="#000000" points="165.4451,-179.9802 167.608,-169.6085 159.4493,-176.3676 165.4451,-179.9802"/>
<text text-anchor="middle" x="173.6265" y="-189.6732" font-family="Times,serif" font-size="14.00" fill="#000000">False</text>
</g>
<!-- 3 -->
<g id="node4" class="node">
<title>3</title>
<polygon fill="none" stroke="#000000" points="180.3044,-58.6014 68.2312,-58.6014 68.2312,.2014 180.3044,.2014 180.3044,-58.6014"/>
<text text-anchor="middle" x="124.2678" y="-41.8" font-family="Times,serif" font-size="14.00" fill="#000000">gini = 0.0</text>
<text text-anchor="middle" x="124.2678" y="-25" font-family="Times,serif" font-size="14.00" fill="#000000">samples = 41</text>
<text text-anchor="middle" x="124.2678" y="-8.2" font-family="Times,serif" font-size="14.00" fill="#000000">value = [0, 41, 0]</text>
</g>
<!-- 2&#45;&gt;3 -->
<g id="edge3" class="edge">
<title>2&#45;&gt;3</title>
<path fill="none" stroke="#000000" d="M166.0666,-94.3048C160.3826,-85.4515 154.3228,-76.013 148.6317,-67.1487"/>
<polygon fill="#000000" stroke="#000000" points="151.4389,-65.0427 143.091,-58.5186 145.5485,-68.8246 151.4389,-65.0427"/>
</g>
<!-- 4 -->
<g id="node5" class="node">
<title>4</title>
<polygon fill="none" stroke="#000000" points="311.3044,-58.6014 199.2312,-58.6014 199.2312,.2014 311.3044,.2014 311.3044,-58.6014"/>
<text text-anchor="middle" x="255.2678" y="-41.8" font-family="Times,serif" font-size="14.00" fill="#000000">gini = 0.0</text>
<text text-anchor="middle" x="255.2678" y="-25" font-family="Times,serif" font-size="14.00" fill="#000000">samples = 37</text>
<text text-anchor="middle" x="255.2678" y="-8.2" font-family="Times,serif" font-size="14.00" fill="#000000">value = [0, 0, 37]</text>
</g>
<!-- 2&#45;&gt;4 -->
<g id="edge4" class="edge">
<title>2&#45;&gt;4</title>
<path fill="none" stroke="#000000" d="M214.1023,-94.3048C219.7002,-85.4515 225.6681,-76.013 231.273,-67.1487"/>
<polygon fill="#000000" stroke="#000000" points="234.3437,-68.8413 236.7298,-58.5186 228.4272,-65.1003 234.3437,-68.8413"/>
</g>
</g>
</svg>